<?xml version="1.0" encoding="utf-8"?>
<!-- Generator: Adobe Illustrator 18.0.0, SVG Export Plug-In . SVG Version: 6.00 Build 0)  -->
<!DOCTYPE svg PUBLIC "-//W3C//DTD SVG 1.1//EN" "http://www.w3.org/Graphics/SVG/1.1/DTD/svg11.dtd">
<svg version="1.1" id="Layer_1" xmlns="http://www.w3.org/2000/svg" xmlns:xlink="http://www.w3.org/1999/xlink" x="0px" y="0px"
	 viewBox="0 0 841.9 595.3" enable-background="new 0 0 841.9 595.3" xml:space="preserve">
<g>
	<g>
		
			<rect x="546.9" y="260.7" transform="matrix(1.782730e-03 1 -1 1.782730e-03 891.7501 -350.4602)" fill="#5CAC88" width="149" height="21.5"/>
		<g>
			
				<rect x="40.9" y="260.7" transform="matrix(1.782730e-03 1 -1 1.782730e-03 386.6305 155.5252)" fill="#5CAC88" width="149" height="21.5"/>
			<path fill="#5CAC88" d="M335.3,295.6c-1-25.9-22.3-46.2-48.2-46c-26.6,0-48,21.7-48,48.4c0,1.2,0,2.2,0.2,3
				c0.4,6.9,2.4,13.6,5.5,19.3c8.5,15.8,24.7,25.5,42.6,25.5c9.5,0,18.9-2.8,26.8-8.1v13.8c-0.6,14.4-12.4,25.5-26.8,25.5
				c-14.4,0-26.2-11.4-26.8-25.7l-0.2-3.4H239v3.6c0.6,25.9,22.3,46.8,48.2,46.8s47-20.3,48-46.2v-54.5L335.3,295.6z M313.8,297.8
				c0,7.9-2.4,14-7.3,18.9c-5.1,4.9-11.4,7.3-19.3,7.3s-14.2-2.4-19.3-7.5s-7.5-11.4-7.5-19.1c0-7.9,2.4-14.2,7.5-19.1
				c5.1-4.9,11.6-7.5,19.1-7.5c7.9,0,14.4,2.4,19.3,7.3c5.1,4.9,7.5,11.1,7.5,19.1L313.8,297.8z"/>
			<path fill="#5CAC88" d="M230.9,296.2l-0.2-46.6h-21.3v48.7c-0.2,14.4-12.4,26.4-26.8,26.4c-7.1,0-13.8-2.8-18.9-7.9
				s-7.9-11.8-7.9-19.1l-0.2-47.8h-21.3v48c0,14.4,6.5,28,17.4,37.1c8.7,7.1,19.7,11.1,30.8,10.9c11.1,0,22.1-3.9,30.6-11.1
				c10.5-8.7,16.8-21.5,17.4-35.1v-0.8c0-0.4,0-0.8,0-1.4V297C230.9,296.6,230.9,296.4,230.9,296.2z"/>
			<path fill="#5CAC88" d="M48,249.4c-1.6,0-3.2,0-5.1,0.2c-24.5,2.6-43,23.3-43,48l0.2,100.5h21.5l-0.2-60.4l0.4,0.2
				c1,0.6,1.8,1.2,2.8,1.8c1,0.6,2,1,3,1.6l0.4,0.2c6.3,2.8,13,4.3,19.9,4.3c16.2,0,31.2-8.1,40.1-21.7c5.1-7.3,7.7-16,7.9-25.3
				v-0.4c0-0.4,0-0.6,0-1c0-13.2-4.9-24.5-14.2-33.9C72.8,254.1,61.4,249.4,48,249.4z M67.5,316.7c-5.1,4.9-11.4,7.3-19.3,7.3
				c-7.7,0-14.2-2.4-19.3-7.5s-7.5-11.4-7.5-19.1c0-7.9,2.4-14,7.5-19.1c5.1-4.9,11.4-7.5,19.1-7.5c7.9,0,14.4,2.4,19.3,7.3
				c5.1,4.9,7.5,11.1,7.5,19.3C74.8,305.5,72.6,311.8,67.5,316.7z"/>
			<path fill="#5CAC88" d="M693.5,249.8c-1.4-0.2-2.8-0.2-4.5-0.2h-0.4h-0.4c-13.2,0.2-24.5,4.9-33.7,14.2c-9.3,9.3-14,20.9-14,34.5
				c0,1.2,0,2,0.2,3.4c0.2,1.4,0.2,2.8,0.6,4.5v0.6c0.2,1.2,0.4,2.4,0.8,3.6l0.4,1c0.2,1,0.6,1.8,0.8,2.6l0.4,1
				c0.4,0.8,0.6,1.8,1,2.6l0.8,1.6c0.2,0.4,0.4,0.8,0.6,1c0.2,0.4,0.4,0.6,0.4,0.8l0.4,0.8c0.4,0.8,0.8,1.4,1.4,2.2
				c8.9,13.6,24.1,21.7,40.3,21.7c8.3,0,16.4-2.2,23.7-6.3c0.4-0.2,0.6-0.4,1-0.6l0.4-0.2c0.6-0.4,1.2-0.6,1.6-1v7.9h21.5l-0.2-49.9
				C735.9,271.5,717.6,252.2,693.5,249.8z M715.4,298c0,7.7-2.4,14-7.3,18.7c-5.1,4.9-11.4,7.3-19.3,7.3s-14.2-2.4-19.3-7.5
				c-3.9-3.9-6.1-8.1-7.1-13.4c-0.4-1.8-0.4-3.6-0.4-5.7c0-7.9,2.4-14,7.5-19.1c5.1-5.1,11.4-7.5,19.1-7.5c7.9,0,14.4,2.4,19.3,7.3
				c5.1,4.9,7.5,11.1,7.5,19.1V298z"/>
			<path fill="#5CAC88" d="M841.5,249.2h-21.3v48.7c0,1.4-0.2,2.8-0.4,4.3c-1.8,9.7-8.7,17.6-18,20.7c-5.5,1.4-12.6,1.2-17.6-0.4
				c-8.9-3.2-15.4-11.1-17.2-20.5c-0.2-1.6-0.4-3.2-0.4-4.9l-0.2-47.8H745l0.2,49.7v1.8c0,0.2,0,0.4,0,0.6v0.4c0,0.6,0.2,1,0.2,1.4
				v0.4c0.2,1.2,0.4,2.8,0.8,4.3c1,4.5,2.4,8.5,4.5,12c8.5,15.8,24.7,25.5,42.6,25.5c9.5,0,18.9-2.8,26.8-8.1V351
				c-0.6,14.4-12.4,25.5-26.8,25.5s-26.2-11.4-26.8-25.7l-0.2-3.4H745v3.6c0.6,25.9,22.3,46.8,48.2,46.8s47-20.3,48-46.2
				L841.5,249.2z"/>
			<path fill="#5CAC88" d="M553.4,249.8c-1.6,0-3.2,0-5.1,0.2c-24.5,2.6-43.2,23.3-43.2,48l0.2,100.1h21.5l-0.2-60l0.4,0.2
				c1,0.6,1.8,1.2,2.8,1.8c1,0.6,2,1,3,1.6l0.4,0.2c6.3,2.8,13,4.3,19.9,4.3c16.2,0,31.2-8.1,40.1-21.7c5.1-7.3,7.7-16,7.9-25.3
				v-0.4c0-0.4,0-0.6,0-1c0-13.2-4.9-24.5-14.2-33.9C578.2,254.5,566.8,249.8,553.4,249.8z M572.9,317.1c-5.1,4.9-11.4,7.3-19.3,7.3
				c-7.7,0-14.2-2.4-19.3-7.5c-5.1-5.1-7.5-11.4-7.5-19.1c0-7.9,2.4-14,7.5-19.1c5.1-4.9,11.4-7.5,19.1-7.5c7.9,0,14.4,2.4,19.3,7.3
				c5.1,4.9,7.5,11.1,7.5,19.3C580.2,305.7,577.7,312,572.9,317.1z"/>
			<path fill="#5CAC88" d="M459,309.2L459,309.2c5.5-11.6,8.7-23.5,10.5-32.2h-22.7c-1.2,4.5-2.4,9.3-4.3,14l-14.6-16.2l-1.4-1.4
				l0,0l-3.2-3.4l0,0l0,0l-9.9-10.9c-1.8-2-3.9-4.3-5.7-6.3l-4.9-5.5c-0.8-0.8-1.4-1.6-2.2-2.6l0,0c0,0,0,0-0.2-0.2l-1.2-1.6l0,0
				c-0.6-0.8-1-1.4-1.4-2c-0.2-0.2-0.4-0.4-0.4-0.8c-0.2-0.4-0.4-0.6-0.6-1c-0.8-1.8-1.4-3.6-1.4-5.7c0.2-2.2,0.6-4.9,1.6-7.1l0,0
				l0,0l0.2-0.4l0,0c0.2-0.4,0.6-0.8,1-1.4l0.2-0.2c0.6-0.8,1.2-1.4,2-2l0.2-0.2c0.4-0.4,0.8-0.6,1.4-1c0.2-0.2,0.4-0.2,0.8-0.4
				c0.6-0.4,1.4-0.6,2-0.8c0.4-0.2,0.8-0.2,1-0.4c0.2,0,0.6-0.2,0.8-0.2c0.8-0.2,1.4-0.2,2.2-0.2l0,0l0,0c0.8,0,1.6,0.2,2.2,0.2
				c0.4,0,0.6,0.2,0.8,0.2c0.4,0,0.8,0.2,1,0.4c0.8,0.2,1.4,0.6,2,0.8c0.2,0.2,0.6,0.2,0.8,0.4c0.4,0.2,0.8,0.6,1.4,1l0.2,0.2
				c0.8,0.8,1.6,1.4,2,2l0.2,0.2c0.4,0.6,0.8,1,1,1.4l0,0l0.2,0.4l0,0l0,0c1,2,1.4,4.7,1.6,7.1c0,2-0.6,3.9-1.4,5.7
				c-0.2,0.4-0.4,0.6-0.6,1c-0.2,0.2-0.2,0.4-0.4,0.8c-0.4,0.6-1,1.4-1.4,2l0,0l-1.2,1.6c0,0,0,0-0.2,0.2l0,0
				c-0.8,0.8-1.6,1.8-2.2,2.6v0.2l14.8,16.6l4.5-5.1l1-1.2c0.8-1,1.8-2,2.4-3l0.2-0.2c0.4-0.6,0.8-1,1-1.6c0.2-0.2,0.2-0.4,0.4-0.6
				c0.6-0.8,1-1.6,1.4-2.6c0.2-0.6,0.4-1,0.8-1.6c0.2-0.4,0.4-0.8,0.6-1.2c0.2-0.6,0.4-1.2,0.6-1.8c0.2-0.4,0.2-0.8,0.4-1
				c0.2-0.6,0.4-1.2,0.6-1.8c0-0.4,0.2-0.8,0.2-1.2c0.2-0.6,0.2-1.2,0.4-1.8c0-0.4,0.2-0.8,0.2-1.2c0-0.6,0.2-1.2,0.2-1.8
				c0-0.2,0-0.6,0-0.8c0-0.6,0-1.4,0-2c0-19.5-15.4-35.5-34.5-36.1c-0.6,0-1.2,0-1.6,0l0,0l0,0c-0.6,0-1.2,0-1.6,0
				c-19.1,0.8-34.5,16.6-34.5,36.1c0,2.4,0.2,4.7,0.6,6.9c0,0.4,0.2,0.6,0.2,1c0.2,0.8,0.4,1.6,0.6,2.2c0.2,0.6,0.4,1.2,0.6,1.8
				c0.2,0.4,0.4,1,0.4,1.4c0.4,0.8,0.6,1.6,1,2.4c0,0.2,0.2,0.4,0.2,0.6c1.6,3.4,3.9,6.5,6.7,9.3c-13.4,8.7-21.7,23.9-21.7,39.7
				c0,6.7,1.4,13,3.9,18.9c1.2,2.8,2.6,5.5,4.3,7.9c8.7,12.8,23.3,21.1,39.9,21.1c2.8,0,5.7-0.2,8.5-0.8c0.6,0,1-0.2,1.6-0.2
				c5.9-1,11.1-3.4,15.8-6.5c0.2,0,0.2-0.2,0.4-0.2c1.2-0.8,2.4-1.8,3.6-2.8c2.6-2,5.1-4.5,7.3-6.9l16,17.6l15.8-15L459,309.2
				L459,309.2z M411.7,323.8c-0.6,0-1.2,0.2-1.8,0.2c-0.2,0-0.4,0-0.6,0c-8.5-0.2-16-4.5-20.7-10.9l0,0c-0.4-0.6-1-1.2-1.4-2
				c-2.2-3.6-3.4-7.9-3.4-12.6c0-9.9,5.9-18.9,15-23.1l10.3,11.4l0,0L431,311l0.8,0.8C427.5,318.9,420,323.4,411.7,323.8z"/>
		</g>
	</g>
</g>
</svg>
